<svg width="200" height="80" viewBox="0 0 200 80" xmlns="http://www.w3.org/2000/svg">
  <defs>
    <linearGradient id="vitaGrad" x1="0%" y1="0%" x2="100%" y2="100%">
      <stop offset="0%" style="stop-color:#10b981;stop-opacity:1" />
      <stop offset="100%" style="stop-color:#059669;stop-opacity:1" />
    </linearGradient>
  </defs>
  <!-- Heart + Leaf Icon -->
  <path d="M 30 25 C 30 20 25 15 20 15 C 15 15 12 18 12 22 C 12 18 9 15 4 15 C -1 15 -6 20 -6 25 C -6 35 12 45 12 45 C 12 45 30 35 30 25 Z" 
        transform="translate(20, 15)" 
        fill="url(#vitaGrad)"/>
  <path d="M 35 30 Q 40 25 45 30 L 42 35 Q 40 32 38 35 Z" 
        fill="#10b981" opacity="0.8"/>
  
  <!-- Text -->
  <text x="55" y="35" font-family="Arial, sans-serif" font-size="24" font-weight="700" fill="#10b981">Vita</text>
  <text x="100" y="35" font-family="Arial, sans-serif" font-size="24" font-weight="300" fill="#059669">Health</text>
  <text x="55" y="52" font-family="Arial, sans-serif" font-size="9" font-weight="400" fill="#6b7280" letter-spacing="2">WELLNESS</text>
</svg>
